<?xml version="1.0" standalone="no"?>
<!DOCTYPE svg PUBLIC "-//W3C//DTD SVG 20010904//EN"
 "http://www.w3.org/TR/2001/REC-SVG-20010904/DTD/svg10.dtd">
<svg version="1.0" xmlns="http://www.w3.org/2000/svg"
 width="1000.000000pt" height="1000.000000pt" viewBox="0 0 1000.000000 1000.000000"
 preserveAspectRatio="xMidYMid meet">
<metadata>
Created by potrace 1.11, written by Peter Selinger 2001-2013
</metadata>
<g transform="translate(0.000000,1000.000000) scale(0.100000,-0.100000)"
fill="#000000" stroke="none">
<path d="M2087 8424 c-1 -1 -31 -5 -67 -8 -118 -12 -229 -35 -357 -72 -102
-30 -144 -89 -146 -209 l-2 -69 -43 -29 c-218 -147 -327 -402 -317 -747 2 -80
6 -161 10 -180 3 -19 10 -60 16 -90 36 -213 109 -424 232 -680 103 -213 169
-442 207 -715 6 -44 13 -91 15 -105 10 -64 31 -289 40 -430 14 -206 20 -743
10 -990 -6 -176 -16 -383 -20 -420 -2 -19 -6 -78 -10 -130 -3 -52 -8 -111 -10
-130 -3 -19 -7 -69 -10 -110 -6 -78 -11 -131 -20 -190 -2 -19 -7 -60 -10 -90
-3 -30 -12 -93 -20 -140 -25 -158 -27 -175 -30 -300 -6 -216 40 -371 140 -472
37 -37 111 -84 145 -93 3 -1 25 -7 50 -14 46 -14 217 -19 280 -8 100 16 193
40 293 76 154 54 332 115 348 120 89 24 324 58 464 66 44 2 127 7 185 10 166
9 263 16 295 21 128 20 216 49 267 88 90 68 107 199 51 386 -18 58 -35 137
-38 175 -3 39 -8 88 -10 110 -5 41 -10 94 -20 200 -3 33 -8 78 -10 100 -2 22
-11 108 -20 190 -8 83 -17 166 -20 185 -2 19 -7 62 -10 95 -3 33 -8 71 -10 85
-2 14 -7 61 -10 105 -4 44 -8 94 -10 110 -9 80 -25 434 -27 593 -1 116 0 124
23 148 28 30 135 101 204 136 52 27 225 91 225 83 0 -2 15 1 33 6 100 29 372
32 502 6 407 -82 724 -219 894 -386 58 -58 121 -141 121 -160 0 -6 4 -11 8
-11 9 0 25 -39 53 -124 50 -152 40 -380 -26 -611 -7 -27 -16 -61 -19 -75 -2
-14 -9 -45 -14 -70 -6 -25 -13 -65 -17 -90 -3 -25 -8 -57 -10 -71 -12 -69 -7
-247 9 -329 30 -160 120 -306 236 -384 14 -9 25 -20 26 -24 5 -45 69 -117 124
-140 19 -8 69 -16 110 -18 99 -4 290 -18 385 -29 231 -25 460 -22 570 7 22 5
81 11 130 13 84 2 124 -1 300 -21 108 -13 285 -10 337 5 61 17 121 69 142 122
26 63 20 192 -14 323 -33 126 -40 209 -55 661 -4 110 -8 227 -9 260 -2 33 -1
64 2 68 2 4 18 -6 35 -24 39 -38 95 -67 121 -63 38 6 51 31 53 107 2 77 -1 91
-47 307 -16 74 -31 146 -34 160 -2 14 -11 59 -20 100 -8 41 -17 86 -20 100 -2
14 -7 36 -10 50 -3 14 -8 43 -11 65 -3 22 -12 83 -20 135 -8 52 -17 122 -20
155 -4 33 -8 75 -10 93 -21 182 -21 674 0 803 2 13 6 53 10 88 10 114 40 283
81 471 14 63 27 122 29 131 12 62 97 342 164 544 84 252 101 333 79 374 -20
37 -65 59 -153 75 -11 2 -56 7 -100 11 -91 7 -154 20 -165 32 -4 4 -10 35 -13
68 -16 167 -105 326 -222 397 -92 56 -127 63 -320 64 -191 2 -398 13 -545 29
-25 2 -81 7 -125 11 -44 4 -93 8 -110 10 -16 2 -138 6 -270 10 -271 7 -302 3
-360 -51 -37 -34 -77 -120 -70 -154 1 -9 6 -77 9 -151 4 -74 9 -148 11 -165 4
-29 15 -211 19 -307 2 -36 -6 -64 -36 -125 -42 -88 -75 -217 -87 -342 -8 -89
-6 -324 3 -401 30 -247 28 -322 -13 -429 -25 -68 -65 -135 -109 -183 l-35 -39
-81 7 c-106 10 -524 10 -651 0 -55 -4 -125 -9 -155 -11 -30 -3 -75 -7 -100
-10 -25 -3 -70 -7 -100 -10 -30 -3 -91 -10 -135 -15 -44 -5 -106 -12 -138 -15
-32 -3 -72 -7 -90 -10 -80 -11 -293 -28 -362 -29 -144 -2 -234 71 -250 200 -3
27 -10 77 -16 112 -5 34 -12 115 -14 180 -6 132 -11 192 -25 272 -10 62 -17
118 -25 205 -3 33 -8 74 -10 92 -18 126 -23 554 -9 783 18 305 7 406 -54 497
-59 89 -183 155 -319 170 -37 4 -71 6 -76 5 -4 -1 -172 -2 -375 -2 -341 0
-459 4 -522 15 -39 7 -248 23 -253 19z"/>
<path d="M8920 7801 c-143 -45 -247 -167 -209 -247 20 -40 60 -56 150 -59 96
-3 160 8 218 38 59 30 83 64 86 124 8 127 -98 189 -245 144z"/>
<path d="M1149 5370 c-48 -13 -67 -30 -89 -75 -39 -80 -23 -174 41 -259 70
-90 165 -127 317 -121 142 5 212 38 212 100 0 65 -66 147 -194 244 -119 88
-222 129 -287 111z"/>
<path d="M1260 4699 c-126 -20 -155 -27 -241 -60 -176 -68 -293 -180 -333
-320 -55 -190 8 -404 162 -551 148 -141 318 -159 467 -47 136 102 221 224 279
403 33 100 37 124 41 246 6 167 -27 256 -114 312 -43 27 -52 29 -131 27 -47
-2 -105 -6 -130 -10z"/>
</g>
</svg>
